// var scoreData = '{"notes": [ { "name": "C4", "midi": 60, "time": 0, "velocity": 0.9921259842519685, "duration": 1 }, { "name": "C4", "midi": 60, "time": 1, "velocity": 0.9921259842519685, "duration": 1 }, { "name": "G4", "midi": 67, "time": 2, "velocity": 0.9921259842519685, "duration": 1 }, { "name": "G4", "midi": 67, "time": 3, "velocity": 0.9921259842519685, "duration": 1 }, { "name": "A4", "midi": 69, "time": 4, "velocity": 0.9921259842519685, "duration": 1 }, { "name": "F4", "midi": 65, "time": 5, "velocity": 0.9921259842519685, "duration": 1 }, { "name": "A4", "midi": 69, "time": 6, "velocity": 0.9921259842519685, "duration": 1 }, { "name": "G4", "midi": 67, "time": 7, "velocity": 0.9921259842519685, "duration": 1 }, { "name": "F4", "midi": 65, "time": 9, "velocity": 0.9921259842519685, "duration": 1 }, { "name": "F4", "midi": 65, "time": 10, "velocity": 0.9921259842519685, "duration": 1 }, { "name": "E4", "midi": 64, "time": 11, "velocity": 0.9921259842519685, "duration": 1 }, { "name": "E4", "midi": 64, "time": 12, "velocity": 0.9921259842519685, "duration": 1 }, { "name": "D4", "midi": 62, "time": 13, "velocity": 0.9921259842519685, "duration": 1 }, { "name": "D4", "midi": 62, "time": 14, "velocity": 0.9921259842519685, "duration": 1 }, { "name": "C4", "midi": 60, "time": 15, "velocity": 0.9921259842519685, "duration": 2 } ]}'
var scoreData = '{"notes": [ { "name": "C4", "midi": 60, "time": 0, "velocity": 0.9921259842519685, "duration": 0.75 }, { "name": "C4", "midi": 60, "time": 0.75, "velocity": 0.9921259842519685, "duration": 0.75 }, { "name": "G4", "midi": 67, "time": 1.5, "velocity": 0.9921259842519685, "duration": 0.75 }, { "name": "G4", "midi": 67, "time": 2.25, "velocity": 0.9921259842519685, "duration": 0.75 }, { "name": "A4", "midi": 69, "time": 3, "velocity": 0.9921259842519685, "duration": 0.75 }, { "name": "F4", "midi": 65, "time": 3, "velocity": 0.9921259842519685, "duration": 0.75 }, { "name": "A4", "midi": 69, "time": 3.75, "velocity": 0.9921259842519685, "duration": 0.75 }, { "name": "G4", "midi": 67, "time": 4.5, "velocity": 0.9921259842519685, "duration": 0.75 }, { "name": "F4", "midi": 65, "time": 6, "velocity": 0.9921259842519685, "duration": 0.75 }, { "name": "F4", "midi": 65, "time": 6.75, "velocity": 0.9921259842519685, "duration": 0.75 }, { "name": "E4", "midi": 64, "time": 7.5, "velocity": 0.9921259842519685, "duration": 0.75 }, { "name": "E4", "midi": 64, "time": 8.25, "velocity": 0.9921259842519685, "duration": 0.75 }, { "name": "D4", "midi": 62, "time": 9, "velocity": 0.9921259842519685, "duration": 0.75 }, { "name": "D4", "midi": 62, "time": 9.75, "velocity": 0.9921259842519685, "duration": 0.75 }, { "name": "C4", "midi": 60, "time": 10.5, "velocity": 0.9921259842519685, "duration": 1.5 }, { "name": "G4", "midi": 67, "time": 12, "velocity": 0.9921259842519685, "duration": 0.75 }, { "name": "G4", "midi": 67, "time": 12.75, "velocity": 0.9921259842519685, "duration": 0.75 }, { "name": "F4", "midi": 65, "time": 13.5, "velocity": 0.9921259842519685, "duration": 0.75 }, { "name": "F4", "midi": 65, "time": 14.25, "velocity": 0.9921259842519685, "duration": 0.75 }, { "name": "E4", "midi": 64, "time": 15, "velocity": 0.9921259842519685, "duration": 0.75 }, { "name": "E4", "midi": 64, "time": 15.75, "velocity": 0.9921259842519685, "duration": 0.75 }, { "name": "D4", "midi": 62, "time": 16.5, "velocity": 0.9921259842519685, "duration": 1.5 }, { "name": "G4", "midi": 67, "time": 18, "velocity": 0.9921259842519685, "duration": 0.75 }, { "name": "G4", "midi": 67, "time": 18.75, "velocity": 0.9921259842519685, "duration": 0.75 }, { "name": "F4", "midi": 65, "time": 19.5, "velocity": 0.9921259842519685, "duration": 0.75 }, { "name": "F4", "midi": 65, "time": 20.25, "velocity": 0.9921259842519685, "duration": 0.75 }, { "name": "E4", "midi": 64, "time": 21, "velocity": 0.9921259842519685, "duration": 0.75 }, { "name": "E4", "midi": 64, "time": 21.75, "velocity": 0.9921259842519685, "duration": 0.75 }, { "name": "D4", "midi": 62, "time": 22.5, "velocity": 0.9921259842519685, "duration": 1.5 }, { "name": "C4", "midi": 60, "time": 24, "velocity": 0.9921259842519685, "duration": 0.75 }, { "name": "C4", "midi": 60, "time": 24.75, "velocity": 0.9921259842519685, "duration": 0.75 }, { "name": "G4", "midi": 67, "time": 25.5, "velocity": 0.9921259842519685, "duration": 0.75 }, { "name": "G4", "midi": 67, "time": 26.25, "velocity": 0.9921259842519685, "duration": 0.75 }, { "name": "A4", "midi": 69, "time": 27, "velocity": 0.9921259842519685, "duration": 0.75 }, { "name": "A4", "midi": 69, "time": 27.75, "velocity": 0.9921259842519685, "duration": 0.75 }, { "name": "G4", "midi": 67, "time": 28.5, "velocity": 0.9921259842519685, "duration": 1.5 }, { "name": "F4", "midi": 65, "time": 30, "velocity": 0.9921259842519685, "duration": 0.75 }, { "name": "F4", "midi": 65, "time": 30.75, "velocity": 0.9921259842519685, "duration": 0.75 }, { "name": "E4", "midi": 64, "time": 31.5, "velocity": 0.9921259842519685, "duration": 0.75 }, { "name": "E4", "midi": 64, "time": 32.25, "velocity": 0.9921259842519685, "duration": 0.75 }, { "name": "D4", "midi": 62, "time": 33, "velocity": 0.9921259842519685, "duration": 0.75 }, { "name": "D4", "midi": 62, "time": 33.75, "velocity": 0.9921259842519685, "duration": 0.75 }, { "name": "C4", "midi": 60, "time": 34.5, "velocity": 0.9921259842519685, "duration": 1.5 }, { "name": "C4", "midi": 60, "time": 36, "velocity": 0.9921259842519685, "duration": 0.375 }, { "name": "D4", "midi": 62, "time": 36.375, "velocity": 0.9921259842519685, "duration": 0.375 }, { "name": "E4", "midi": 64, "time": 36.75, "velocity": 0.9921259842519685, "duration": 0.375 }, { "name": "F4", "midi": 65, "time": 37.125, "velocity": 0.9921259842519685, "duration": 0.375 }, { "name": "G4", "midi": 67, "time": 37.5, "velocity": 0.9921259842519685, "duration": 0.75 }, { "name": "C5", "midi": 72, "time": 38.25, "velocity": 0.9921259842519685, "duration": 0.75 }, { "name": "A4", "midi": 69, "time": 39, "velocity": 0.9921259842519685, "duration": 0.75 }, { "name": "C5", "midi": 72, "time": 39.75, "velocity": 0.9921259842519685, "duration": 0.75 }, { "name": "G4", "midi": 67, "time": 40.5, "velocity": 0.9921259842519685, "duration": 1.5 }, { "name": "F4", "midi": 65, "time": 42, "velocity": 0.9921259842519685, "duration": 0.75 }, { "name": "F4", "midi": 65, "time": 42.75, "velocity": 0.9921259842519685, "duration": 0.375 }, { "name": "G4", "midi": 67, "time": 43.125, "velocity": 0.9921259842519685, "duration": 0.375 }, { "name": "E4", "midi": 64, "time": 43.5, "velocity": 0.9921259842519685, "duration": 0.75 }, { "name": "C4", "midi": 60, "time": 44.25, "velocity": 0.9921259842519685, "duration": 0.75 }, { "name": "D4", "midi": 62, "time": 45, "velocity": 0.9921259842519685, "duration": 0.75 }, { "name": "D4", "midi": 62, "time": 45.75, "velocity": 0.9921259842519685, "duration": 0.375 }, { "name": "E4", "midi": 64, "time": 46.125, "velocity": 0.9921259842519685, "duration": 0.375 }, { "name": "D4", "midi": 62, "time": 46.5, "velocity": 0.9921259842519685, "duration": 1.5 }, { "name": "C4", "midi": 60, "time": 48, "velocity": 0.9921259842519685, "duration": 0.375 }, { "name": "D4", "midi": 62, "time": 48.375, "velocity": 0.9921259842519685, "duration": 0.375 }, { "name": "E4", "midi": 64, "time": 48.75, "velocity": 0.9921259842519685, "duration": 0.375 }, { "name": "F4", "midi": 65, "time": 49.125, "velocity": 0.9921259842519685, "duration": 0.375 }, { "name": "G4", "midi": 67, "time": 49.5, "velocity": 0.9921259842519685, "duration": 0.75 }, { "name": "C5", "midi": 72, "time": 50.25, "velocity": 0.9921259842519685, "duration": 0.75 }, { "name": "A4", "midi": 69, "time": 51, "velocity": 0.9921259842519685, "duration": 0.75 }, { "name": "C5", "midi": 72, "time": 51.75, "velocity": 0.9921259842519685, "duration": 0.75 }, { "name": "G4", "midi": 67, "time": 52.5, "velocity": 0.9921259842519685, "duration": 1.5 }, { "name": "C5", "midi": 72, "time": 54, "velocity": 0.9921259842519685, "duration": 0.75 }, { "name": "A4", "midi": 69, "time": 55.125, "velocity": 0.9921259842519685, "duration": 0.375 }, { "name": "G4", "midi": 67, "time": 55.5, "velocity": 0.9921259842519685, "duration": 0.75 }, { "name": "F4", "midi": 65, "time": 56.25, "velocity": 0.9921259842519685, "duration": 0.75 }, { "name": "E4", "midi": 64, "time": 57, "velocity": 0.9921259842519685, "duration": 0.75 }, { "name": "D4", "midi": 62, "time": 57.75, "velocity": 0.9921259842519685, "duration": 0.75 }, { "name": "C4", "midi": 60, "time": 58.5, "velocity": 0.9921259842519685, "duration": 1.5 }, { "name": "C5", "midi": 72, "time": 60, "velocity": 0.9921259842519685, "duration": 0.375 }, { "name": "A4", "midi": 69, "time": 60.375, "velocity": 0.9921259842519685, "duration": 0.1875 }, { "name": "A#4", "midi": 70, "time": 60.5625, "velocity": 0.9921259842519685, "duration": 0.1875 }, { "name": "C5", "midi": 72, "time": 60.75, "velocity": 0.9921259842519685, "duration": 0.375 }, { "name": "A4", "midi": 69, "time": 61.125, "velocity": 0.9921259842519685, "duration": 0.1875 }, { "name": "A#4", "midi": 70, "time": 61.3125, "velocity": 0.9921259842519685, "duration": 0.1875 }, { "name": "C5", "midi": 72, "time": 61.5, "velocity": 0.9921259842519685, "duration": 0.1875 }, { "name": "C4", "midi": 60, "time": 61.6875, "velocity": 0.9921259842519685, "duration": 0.1875 }, { "name": "D4", "midi": 62, "time": 61.875, "velocity": 0.9921259842519685, "duration": 0.1875 }, { "name": "E4", "midi": 64, "time": 62.0625, "velocity": 0.9921259842519685, "duration": 0.1875 }, { "name": "F4", "midi": 65, "time": 62.25, "velocity": 0.9921259842519685, "duration": 0.1875 }, { "name": "G4", "midi": 67, "time": 62.4375, "velocity": 0.9921259842519685, "duration": 0.1875 }, { "name": "A4", "midi": 69, "time": 62.625, "velocity": 0.9921259842519685, "duration": 0.1875 }, { "name": "A#4", "midi": 70, "time": 62.8125, "velocity": 0.9921259842519685, "duration": 0.1875 } ] }'

// {
//     "name": "C4",
//     "midi": 60,
//     "time": 10.5,
//     "velocity": 0.9921259842519685,
//     "duration": 1.5
// }


// var score = JSON.parse(scoreData);
// score.notes[ _ ].name
// score.notes[ _ ].duration
// score.notes[ _ ].time
// console.log(score.notes[0].name);  --> C4
// console.log(score.notes[0].duration);  --> 0.75
